<svg width="70" height="70" viewBox="0 0 70 70" fill="none" xmlns="http://www.w3.org/2000/svg">
<circle cx="35" cy="35" r="35" fill="#E178C5"/>
<path d="M57.4018 48.9651C54.2391 43.5499 49.3653 39.6669 43.6774 37.8262C46.4909 36.1674 48.6768 33.6398 49.8994 30.6315C51.1221 27.6233 51.3138 24.3007 50.4453 21.1741C49.5767 18.0474 47.6959 15.2896 45.0916 13.3241C42.4873 11.3586 39.3035 10.2941 36.0293 10.2941C32.755 10.2941 29.5713 11.3586 26.967 13.3241C24.3627 15.2896 22.4818 18.0474 21.6133 21.1741C20.7447 24.3007 20.9365 27.6233 22.1591 30.6315C23.3817 33.6398 25.5676 36.1674 28.3811 37.8262C22.6932 39.6648 17.8194 43.5478 14.6567 48.9651C14.5408 49.1524 14.4638 49.3608 14.4305 49.578C14.3971 49.7952 14.4081 50.0169 14.4626 50.2298C14.5172 50.4428 14.6142 50.6428 14.7481 50.818C14.8819 50.9932 15.0499 51.1401 15.242 51.25C15.4341 51.3599 15.6465 51.4306 15.8666 51.4579C16.0867 51.4851 16.3101 51.4685 16.5237 51.4089C16.7372 51.3493 16.9365 51.2479 17.1098 51.1108C17.2831 50.9736 17.427 50.8035 17.5329 50.6104C21.4452 43.9139 28.3603 39.9157 36.0293 39.9157C43.6982 39.9157 50.6133 43.9139 54.5257 50.6104C54.6316 50.8035 54.7754 50.9736 54.9487 51.1108C55.1221 51.2479 55.3214 51.3493 55.5349 51.4089C55.7484 51.4685 55.9718 51.4851 56.1919 51.4579C56.4121 51.4306 56.6245 51.3599 56.8166 51.25C57.0087 51.1401 57.1766 50.9932 57.3104 50.818C57.4443 50.6428 57.5414 50.4428 57.5959 50.2298C57.6505 50.0169 57.6614 49.7952 57.6281 49.578C57.5947 49.3608 57.5178 49.1524 57.4018 48.9651ZM24.4002 25.1077C24.4002 22.8298 25.0823 20.6031 26.3601 18.709C27.6379 16.815 29.4541 15.3388 31.579 14.4671C33.704 13.5954 36.0422 13.3673 38.298 13.8117C40.5538 14.2561 42.6259 15.353 44.2522 16.9637C45.8786 18.5745 46.9862 20.6267 47.4349 22.8608C47.8836 25.095 47.6533 27.4107 46.7731 29.5152C45.8929 31.6197 44.4024 33.4185 42.49 34.6841C40.5776 35.9496 38.3293 36.6251 36.0293 36.6251C32.9461 36.6218 29.9901 35.4073 27.8099 33.2481C25.6298 31.0889 24.4035 28.1613 24.4002 25.1077Z" fill="#EFEFEF"/>
</svg>
