<svg width="113" height="301" viewBox="0 0 113 301" fill="none" xmlns="http://www.w3.org/2000/svg">
<path d="M111.438 151.063C112.118 150.383 112.5 149.461 112.5 148.5C112.5 147.539 112.118 146.617 111.438 145.937C110.758 145.257 109.836 144.875 108.875 144.875H78.125V114.125C78.125 113.164 77.7431 112.242 77.0633 111.562C76.3834 110.882 75.4614 110.5 74.5 110.5C73.5386 110.5 72.6166 110.882 71.9367 111.562C71.2569 112.242 70.875 113.164 70.875 114.125V144.875H40.125C39.1636 144.875 38.2416 145.257 37.5617 145.937C36.8819 146.617 36.5 147.539 36.5 148.5C36.5 149.461 36.8819 150.383 37.5617 151.063C38.2416 151.743 39.1636 152.125 40.125 152.125H70.875V182.875C70.875 183.836 71.2569 184.758 71.9367 185.438C72.6166 186.118 73.5386 186.5 74.5 186.5C75.4614 186.5 76.3834 186.118 77.0633 185.438C77.7431 184.758 78.125 183.836 78.125 182.875V152.125H108.875C109.836 152.125 110.758 151.743 111.438 151.063Z" fill="#FFFDCB" stroke="#FFFDCB"/>
<line x1="2.5" y1="1.09278e-07" x2="2.49999" y2="301" stroke="#FFFDCB" stroke-width="5"/>
</svg>
